<?xml version="1.0" encoding="utf-8"?>
<!DOCTYPE svg PUBLIC "-//W3C//DTD SVG 1.0//EN" "http://www.w3.org/TR/2001/REC-SVG-20010904/DTD/svg10.dtd">
<svg version="1.0" xmlns="http://www.w3.org/2000/svg" width="400px" height="251px" viewBox="0 0 400 251" preserveAspectRatio="xMidYMid meet">
 <g fill="#3a4750">
  <path d="M20.8 244.6 c-13.1 -3.5 -20.9 -15.8 -19.5 -30.6 0.9 -10.8 6.6 -19.2 15.7 -23.4 6.5 -3 18.7 -2.8 25.3 0.3 4.1 2 10.7 8.3 10.7 10.1 0 0.4 -1.6 1.4 -3.5 2.3 -3.4 1.6 -3.5 1.6 -5 -0.6 -4.5 -6.9 -16.5 -9 -25.2 -4.5 -11.2 5.7 -13.9 23.4 -5.1 33.4 4.3 4.9 8.1 6.6 14.8 6.6 9.4 0 16.1 -4.6 17.6 -12.2 l0.6 -2.9 -8.8 -0.3 -8.9 -0.3 -0.3 -3.2 -0.3 -3.3 13 0 13.1 0 0 14.5 0 14.5 -3 0 c-2.9 0 -3 -0.2 -3 -4.6 l0 -4.7 -4.4 4.1 c-6.2 5.7 -14.3 7.4 -23.8 4.8z"/>
  <path d="M105.7 244.6 c-8.6 -3.2 -12.8 -9.6 -12.8 -19.2 0 -11.5 6.8 -19.3 17.7 -20.2 17.2 -1.4 27.5 14.9 19.4 30.8 -4 7.9 -15.4 12 -24.3 8.6z m13.2 -7.1 c7.5 -3.8 8.1 -18.9 1 -23.9 -9.6 -6.7 -21.3 1.9 -19.4 14.2 1 6.5 5.8 11.2 11.4 11.2 2.3 0 5.5 -0.7 7 -1.5z"/>
  <path d="M153.1 244.5 c-8.1 -2.5 -13.1 -9.8 -13.1 -19 0 -9.3 6.8 -18.6 14.6 -20.1 5.3 -1 13.1 0.2 17.1 2.7 10.1 6.3 11 25.1 1.4 33.2 -5.5 4.6 -12.1 5.6 -20 3.2z m12.9 -7 c4 -2.1 6.2 -6.7 6.2 -12.8 -0.1 -5.7 -2.1 -9.1 -7.1 -12.1 -4.3 -2.5 -9.5 -1.4 -13.8 2.9 -3 3 -3.3 3.9 -3.3 9 0 6.4 1 9 4.8 12.2 3.2 2.7 8.9 3 13.2 0.8z"/>
  <path d="M240.7 244.6 c-11.5 -4.3 -16.1 -17.9 -9.9 -29.7 4.9 -9.3 15.9 -12.6 26 -7.8 3.5 1.8 4.9 3.2 6.8 7.3 1.3 2.8 2.4 6.8 2.4 8.9 l0 3.7 -15 0 -15 0 0 2.6 c0 1.6 1.3 3.9 3.4 6 2.9 2.9 4.1 3.4 8 3.4 3.7 0 5.2 -0.6 8.1 -3.1 3.1 -2.8 4 -3.1 6.6 -2.3 l3 0.9 -2.3 3.4 c-4.5 6.7 -14.2 9.6 -22.1 6.7z m16.9 -26.3 c-1.7 -7.2 -11.9 -9.8 -17.5 -4.5 -1.6 1.5 -3.2 3.7 -3.6 5 -0.6 2.2 -0.6 2.2 10.5 2.2 l11.2 0 -0.6 -2.7z"/>
  <path d="M317.3 244.5 c-4.8 -2.1 -7 -7.2 -5.4 -12.5 1.5 -4.9 5.1 -7.5 13.1 -9.1 9.7 -2 10.5 -2.4 10.8 -5.2 0.7 -6.2 -9.3 -9.3 -14.2 -4.4 -1.3 1.3 -2.5 2.8 -2.7 3.4 -0.5 1.4 -6.9 0.4 -6.9 -1.1 0 -2.7 4.3 -7.8 7.8 -9.3 4.6 -1.9 14.7 -1.3 18.4 1.1 3.8 2.5 4.8 5.8 4.8 16 0 11.7 0.7 15.4 3.1 16.1 1.2 0.4 1.9 1.6 1.9 3.1 0 2.1 -0.5 2.4 -3.5 2.4 -2.5 0 -4.4 -0.8 -6 -2.4 -1.5 -1.5 -2.7 -2.1 -3.1 -1.4 -1.1 1.7 -8.7 4.8 -11.9 4.7 -1.6 0 -4.5 -0.6 -6.2 -1.4z m13.9 -6.7 c2.2 -1.1 4.8 -6 4.8 -8.9 0 -2 -0.3 -2.1 -4.7 -1.4 -2.7 0.3 -6.4 1.4 -8.3 2.3 -2.8 1.4 -3.5 2.3 -3.5 4.7 0 4.9 5.6 6.5 11.7 3.3z"/>
  <path d="M373.4 244.9 c-1.7 -0.5 -4.3 -2.1 -5.8 -3.5 l-2.6 -2.7 0 3.2 c0 3 -0.2 3.1 -4 3.1 l-4 0 0 -30.5 0 -30.5 4 0 4 0 0 14.2 c0 12.8 0.1 14 1.5 12.2 3.7 -5.4 13.2 -6.9 20.5 -3.1 3.5 1.7 5.1 3.4 7.3 7.6 4.3 8.6 3.3 18 -2.6 24.8 -5.1 5.7 -10.8 7.4 -18.3 5.2z m9.4 -7.3 c8.2 -4.5 8.3 -20.3 0.1 -24.7 -5.5 -2.9 -13.6 -0.3 -16.5 5.2 -1.9 3.7 -1.8 11.4 0.2 14.8 3.3 5.5 10.8 7.7 16.2 4.7z"/>
  <path d="M68 225.5 l0 -19.5 3.5 0 c3.3 0 3.5 0.2 3.5 3.2 l0 3.2 2.8 -2.6 c2.5 -2.5 7.1 -4.8 9.3 -4.8 0.5 0 0.9 1.6 0.9 3.5 0 3.1 -0.3 3.5 -3.9 4.5 -7.1 1.9 -8.1 4.3 -8.1 19.1 l0 12.9 -4 0 -4 0 0 -19.5z"/>
  <path d="M193 226.4 c-4.1 -10.2 -7.7 -19.1 -7.9 -19.6 -0.2 -0.5 1.5 -0.8 3.9 -0.6 l4.2 0.3 5.2 14.2 c2.8 7.9 5.3 14.3 5.6 14.3 0.3 0 2 -4.2 3.9 -9.3 8 -21.8 6.8 -19.7 11.2 -19.7 2.1 0 3.9 0.3 3.8 0.8 0 0.4 -3.5 9 -7.7 19.2 l-7.7 18.5 -3.5 0.3 -3.5 0.2 -7.5 -18.6z"/>
  <path d="M278 217 l0 -28 4 0 4 0 0 24.5 0 24.5 9.5 0 9.5 0 0 3.5 0 3.5 -13.5 0 -13.5 0 0 -28z"/>
  <path d="M181.5 159.5 c-28.4 -7.1 -49.7 -27.1 -58.5 -55 -3.1 -10 -3.8 -26.4 -1.6 -37.6 6.1 -29.8 28.2 -53.4 57.7 -61.5 9.1 -2.5 29.9 -2.5 39.4 0 42.4 11.2 67.8 53.8 57.1 95.8 -6.8 26.6 -25.4 47 -51.4 56.1 -7.9 2.8 -10.1 3.1 -22.7 3.4 -9.8 0.2 -15.8 -0.2 -20 -1.2z m34.2 -6.9 c0.2 -0.1 -5 -23.9 -7.2 -33.3 -0.4 -1.8 -1.2 -2.3 -3.6 -2.3 -2.4 0 -2.9 0.4 -2.5 1.8 0.2 0.9 2.1 9.3 4.2 18.5 l3.8 16.8 2.5 -0.6 c1.4 -0.4 2.7 -0.8 2.8 -0.9z m12.1 -3.7 c4.9 -2.1 17.3 -10.1 19.1 -12.3 1 -1.2 -0.9 -3.8 -10.9 -14.5 l-12.2 -13.1 -2.9 2 c-1.5 1.1 -4.4 2.7 -6.4 3.6 -3.1 1.2 -3.6 1.9 -3.1 3.7 0.3 1.2 2.2 9.3 4.3 18 4.1 17.6 3.1 16.5 12.1 12.6z m-17.4 -37.7 c9.4 -3.3 17.7 -13.2 19.4 -23.4 1.9 -10.5 -2.6 -23 -10.5 -29.5 -15.7 -12.9 -39.2 -8.1 -48.2 9.8 -2.6 5.3 -3.1 7.3 -3.1 13.5 0 8.6 1.8 14 6.8 20.2 8.6 10.8 21.7 14.2 35.6 9.4z"/>
  <path d="M194.3 109.8 c-17.2 -2.9 -27.4 -20.4 -21.7 -37 1.9 -5.8 7.3 -12 13.2 -15.6 4.1 -2.3 5.8 -2.7 12.7 -2.7 9.2 0 14.9 2.1 20.3 7.6 5.1 5.1 7.5 10.5 8 18.5 0.4 6.1 0.1 8 -2 12.6 -2.8 6 -8.1 11.8 -13 14.4 -4.1 2.1 -12.2 3.2 -17.5 2.2z m11.5 -15.8 c4.9 -3 7.4 -7.6 6.9 -12.9 -1.4 -13.7 -18.6 -17.6 -25.7 -5.8 -7.1 11.5 7.2 25.8 18.8 18.7z"/>
 </g>
</svg>